<svg xmlns="http://www.w3.org/2000/svg" xmlns:svg="http://www.w3.org/2000/svg" xmlns:xlink="http://www.w3.org/1999/xlink" version="1.0" height="490pt" width="830pt" viewBox="215 57 838 496" ><defs><style type="text/css">
            @font-face {
                font-family: 'lt_regular';
                src: url('https://app.creately.com/diagram/assets/fonts/lato/lt-regular-webfont.woff2') format('woff2'),
                    url('https://app.creately.com/diagram/assets/fonts/lato/lt-regular-webfont.woff') format('woff');
                font-weight: normal;
                font-style: normal;
            }
            @font-face {
                font-family: 'noto_regular';
                src: url('https://app.creately.com/diagram/assets/fonts/noto/noto-regular.woff') format('woff'),
                     url('https://app.creately.com/diagram/assets/fonts/noto/noto-regular.woff2') format('woff2');
                font-weight: normal;
                font-style: normal;
            }
        p {
            margin: 0;
        }
        </style></defs><defs><style>
            span{ display: inline-block; }
        </style></defs><g id="wiGdZe6GIfr"><g transform="translate(540 60)"><rect x="0" y="0" width="180" height="130" rx="2" ry="2" fill="rgb(255,255,255)" stroke="#34BDCC" stroke-width="2" stroke-linecap="round" stroke-linejoin="round" stroke-dasharray="0 0"/><path d="M 0,29 L 180,29 M 0,76 L 180,76" fill="rgb(255,255,255)" stroke="#34BDCC" stroke-width="2" stroke-linecap="round" stroke-linejoin="round" stroke-dasharray="0 0"/></g><g transform="translate(616.5, 65) rotate(0, 13.5, 0)" width="27" height="19"><text text-decoration="none" x="0" fill="#34BDCC" font-weight="bold" font-size="10pt" font-family="lt_regular"  y="15">User</text><text text-decoration="none" x="28" fill="#4b4b4b" font-size="10pt" font-family="noto_regular"  y="15"></text></g><g transform="translate(550, 94) rotate(0, 0, 0)" width="47" height="37"><text text-decoration="none" x="0" fill="#34BDCC" font-size="10pt" font-family="lt_regular"  y="14">Name</text><text text-decoration="none" x="34" fill="#34BDCC" font-size="10pt" font-family="lt_regular"  y="14"></text><text text-decoration="none" x="0" fill="#34BDCC" font-size="10pt" font-family="lt_regular"  y="33">Address</text><text text-decoration="none" x="47" fill="#4b4b4b" font-size="10pt" font-family="noto_regular"  y="33"></text></g><g transform="translate(545, 141) rotate(0, 0, 0)" width="0" height="18"><text text-decoration="none" x="0" fill="#4b4b4b" font-size="10pt" font-family="noto_regular"  y="15"></text></g></g><g id="A1CvmvPO2dB"><g transform="translate(220 350)"><rect x="0" y="0" width="180" height="200" rx="2" ry="2" fill="rgb(255,255,255)" stroke="#34BDCC" stroke-width="2" stroke-linecap="round" stroke-linejoin="round" stroke-dasharray="0 0"/><path d="M 0,46 L 180,46 M 0,93 L 180,93" fill="rgb(255,255,255)" stroke="#34BDCC" stroke-width="2" stroke-linecap="round" stroke-linejoin="round" stroke-dasharray="0 0"/></g><g transform="translate(270, 355) rotate(0, 40, 0)" width="80" height="36"><text text-decoration="none" x="0.5" fill="rgb(52, 189, 204)" font-weight="bold" font-size="10pt" font-family="lt_regular"  y="14">Administrator</text><text text-decoration="none" x="79.5" fill="rgb(52, 189, 204)" font-weight="bold" font-size="10pt" font-family="lt_regular"  y="14"></text><text text-decoration="none" x="40" fill="#4b4b4b" font-size="10pt" font-family="noto_regular"  y="33"></text></g><g transform="translate(230, 401) rotate(0, 0, 0)" width="47" height="37"><text text-decoration="none" x="0" fill="#34BDCC" font-size="10pt" font-family="lt_regular"  y="14">Name</text><text text-decoration="none" x="34" fill="#34BDCC" font-size="10pt" font-family="lt_regular"  y="14"></text><text text-decoration="none" x="0" fill="#34BDCC" font-size="10pt" font-family="lt_regular"  y="33">Address</text><text text-decoration="none" x="47" fill="#4b4b4b" font-size="10pt" font-family="noto_regular"  y="33"></text></g><g transform="translate(230, 448) rotate(0, 0, 0)" width="90" height="19"><text text-decoration="none" x="0" fill="#34BDCC" font-size="10pt" font-family="lt_regular"  y="15">Manage&#160;</text><text text-decoration="none" x="48" fill="#34BDCC" font-size="10pt" font-family="lt_regular"  y="15">Users()</text><text text-decoration="none" x="88" fill="#4b4b4b" font-size="10pt" font-family="noto_regular"  y="15"></text></g></g><g id="4P4WDKmQpWe"><g><path d="M 310,350 L 310,270 L 448,270 L 585,270 L 585,190" fill="none" stroke="#2D94E4" stroke-width="2" stroke-linecap="round" stroke-linejoin="round" stroke-dasharray="0 0"/><path d="M 310,350 L 315.75,341.30434782608694 L 304.25,341.30434782608694 Z" fill="rgb(255,255,255)" stroke="#2D94E4" stroke-width="2" stroke-linecap="round" stroke-linejoin="round"/></g></g><g id="GFKdVlUKtsi"><g transform="translate(540 350)"><rect x="0" y="0" width="180" height="200" rx="2" ry="2" fill="rgb(255,255,255)" stroke="#34BDCC" stroke-width="2" stroke-linecap="round" stroke-linejoin="round" stroke-dasharray="0 0"/><path d="M 0,46 L 180,46 M 0,111 L 180,111" fill="rgb(255,255,255)" stroke="#34BDCC" stroke-width="2" stroke-linecap="round" stroke-linejoin="round" stroke-dasharray="0 0"/></g><g transform="translate(602.5, 355) rotate(0, 27.5, 0)" width="55" height="36"><text text-decoration="none" x="0" fill="#34BDCC" font-weight="bold" font-size="10pt" font-family="lt_regular"  y="14">Employer</text><text text-decoration="none" x="55" fill="#34BDCC" font-size="10pt" font-family="lt_regular"  y="14"></text><text text-decoration="none" x="27.5" fill="#4b4b4b" font-size="10pt" font-family="noto_regular"  y="33"></text></g><g transform="translate(550, 401) rotate(0, 0, 0)" width="56" height="55"><text text-decoration="none" x="0" fill="#34BDCC" font-size="10pt" font-family="lt_regular"  y="14">Name</text><text text-decoration="none" x="34" fill="#34BDCC" font-size="10pt" font-family="lt_regular"  y="14"></text><text text-decoration="none" x="0" fill="#34BDCC" font-size="10pt" font-family="lt_regular"  y="32">Address</text><text text-decoration="none" x="47" fill="#34BDCC" font-size="10pt" font-family="lt_regular"  y="32"></text><text text-decoration="none" x="0" fill="#34BDCC" font-size="10pt" font-family="lt_regular"  y="51">Company</text><text text-decoration="none" x="54" fill="#4b4b4b" font-size="10pt" font-family="noto_regular"  y="51"></text></g><g transform="translate(550, 466) rotate(0, 0, 0)" width="116" height="55"><text text-decoration="none" x="0" fill="#34BDCC" font-size="10pt" font-family="lt_regular"  y="14">Post&#160;</text><text text-decoration="none" x="29" fill="#34BDCC" font-size="10pt" font-family="lt_regular"  y="14">JobOpenings(&#160;</text><text text-decoration="none" x="108" fill="#34BDCC" font-size="10pt" font-family="lt_regular"  y="14">)</text><text text-decoration="none" x="111" fill="#34BDCC" font-size="10pt" font-family="lt_regular"  y="14"></text><text text-decoration="none" x="0" fill="#34BDCC" font-size="10pt" font-family="lt_regular"  y="32">SearchCandidates(&#160;</text><text text-decoration="none" x="107" fill="#34BDCC" font-size="10pt" font-family="lt_regular"  y="32">)</text><text text-decoration="none" x="110" fill="#34BDCC" font-size="10pt" font-family="lt_regular"  y="32"></text><text text-decoration="none" x="0" fill="#34BDCC" font-size="10pt" font-family="lt_regular"  y="51">DownloadCV(&#160;</text><text text-decoration="none" x="81" fill="#34BDCC" font-size="10pt" font-family="lt_regular"  y="51">)</text><text text-decoration="none" x="84" fill="#4b4b4b" font-size="10pt" font-family="noto_regular"  y="51"></text></g></g><g id="ZBXAV8DHaQy"><g><path d="M 630,350 L 630,190" fill="none" stroke="#2D94E4" stroke-width="2" stroke-linecap="round" stroke-linejoin="round" stroke-dasharray="0 0"/><path d="M 630,350 L 635.75,341.30434782608694 L 624.25,341.30434782608694 Z" fill="rgb(255,255,255)" stroke="#2D94E4" stroke-width="2" stroke-linecap="round" stroke-linejoin="round"/></g></g><g id="ZAnr9qNCJ6D"><g transform="translate(870 350)"><rect x="0" y="0" width="180" height="199.99999999999997" rx="2" ry="2" fill="rgb(255,255,255)" stroke="#34BDCC" stroke-width="2" stroke-linecap="round" stroke-linejoin="round" stroke-dasharray="0 0"/><path d="M 0,46 L 180,46 M 0,111 L 180,111" fill="rgb(255,255,255)" stroke="#34BDCC" stroke-width="2" stroke-linecap="round" stroke-linejoin="round" stroke-dasharray="0 0"/></g><g transform="translate(928.5, 355) rotate(0, 31.5, 0)" width="63" height="36"><text text-decoration="none" x="0.5" fill="#34BDCC" font-weight="bold" font-size="10pt" font-family="lt_regular"  y="14">Job&#160;</text><text text-decoration="none" x="22.5" fill="#34BDCC" font-weight="bold" font-size="10pt" font-family="lt_regular"  y="14">Seeker</text><text text-decoration="none" x="62.5" fill="#34BDCC" font-weight="bold" font-size="10pt" font-family="lt_regular"  y="14"></text><text text-decoration="none" x="31.5" fill="#4b4b4b" font-size="10pt" font-family="noto_regular"  y="33"></text></g><g transform="translate(880, 401) rotate(0, 0, 0)" width="74" height="55"><text text-decoration="none" x="0" fill="#34BDCC" font-size="10pt" font-family="lt_regular"  y="14">Name</text><text text-decoration="none" x="34" fill="#34BDCC" font-size="10pt" font-family="lt_regular"  y="14"></text><text text-decoration="none" x="0" fill="#34BDCC" font-size="10pt" font-family="lt_regular"  y="32">Qualification</text><text text-decoration="none" x="70" fill="#34BDCC" font-size="10pt" font-family="lt_regular"  y="32"></text><text text-decoration="none" x="0" fill="#34BDCC" font-size="10pt" font-family="lt_regular"  y="51">Experience</text><text text-decoration="none" x="63" fill="#4b4b4b" font-size="10pt" font-family="noto_regular"  y="51"></text></g><g transform="translate(880, 466) rotate(0, 0, 0)" width="75" height="73"><text text-decoration="none" x="0" fill="#34BDCC" font-size="10pt" font-family="lt_regular"  y="14">UploadCV(&#160;</text><text text-decoration="none" x="64" fill="#34BDCC" font-size="10pt" font-family="lt_regular"  y="14">)</text><text text-decoration="none" x="67" fill="#34BDCC" font-size="10pt" font-family="lt_regular"  y="14"></text><text text-decoration="none" x="0" fill="#34BDCC" font-size="10pt" font-family="lt_regular"  y="32">UpdateCV(&#160;</text><text text-decoration="none" x="66" fill="#34BDCC" font-size="10pt" font-family="lt_regular"  y="32">)</text><text text-decoration="none" x="69" fill="#34BDCC" font-size="10pt" font-family="lt_regular"  y="32"></text><text text-decoration="none" x="0" fill="#34BDCC" font-size="10pt" font-family="lt_regular"  y="50">searchJobs(&#160;</text><text text-decoration="none" x="68" fill="#34BDCC" font-size="10pt" font-family="lt_regular"  y="50">)</text><text text-decoration="none" x="71" fill="#34BDCC" font-size="10pt" font-family="lt_regular"  y="50"></text><text text-decoration="none" x="0" fill="#34BDCC" font-size="10pt" font-family="lt_regular"  y="69">ApplyJobs(&#160;</text><text text-decoration="none" x="64" fill="#34BDCC" font-size="10pt" font-family="lt_regular"  y="69">)</text><text text-decoration="none" x="67" fill="#4b4b4b" font-size="10pt" font-family="noto_regular"  y="69"></text></g></g><g id="0GdVJcBHn1a"><g><path d="M 675,190 L 675,270 L 818,270 L 960,270 L 960,350" fill="none" stroke="#2D94E4" stroke-width="2" stroke-linecap="round" stroke-linejoin="round" stroke-dasharray="0 0"/><path d="M 960,350 L 965.75,341.30434782608694 L 954.25,341.30434782608694 Z" fill="rgb(255,255,255)" stroke="#2D94E4" stroke-width="2" stroke-linecap="round" stroke-linejoin="round"/></g></g><g id="UUNoJb7m597"><mask id="d97cd" x="386" y="436" width="168" height="28" maskUnits="userSpaceOnUse"><rect x="386" y="436" width="168" height="28" fill="white" /><rect x="423" y="437.5" width="14" height="25" fill="black" /><rect x="497" y="437.5" width="26" height="25" fill="black" /></mask><g mask="url(#d97cd)"><path d="M 400,450 L 540,450" fill="none" stroke="#2D94E4" stroke-width="2" stroke-linecap="round" stroke-linejoin="round" stroke-dasharray="0 0"/></g><g transform="translate(426, 440.5)" width="8" height="19"><text text-decoration="none" x="0" fill="#4b4b4b" font-size="10pt" font-family="lt_regular"  y="15">1</text><text text-decoration="none" x="8" fill="#4b4b4b" font-size="10pt" font-family="noto_regular"  y="15"></text></g><g transform="translate(500, 440.5)" width="20" height="19"><text text-decoration="none" x="0" fill="#4b4b4b" font-size="10pt" font-family="lt_regular"  y="15">1..*</text><text text-decoration="none" x="20" fill="#4b4b4b" font-size="10pt" font-family="noto_regular"  y="15"></text></g></g><g id="3ZCl8FEWpn9"><mask id="09c5c" x="706" y="436" width="178" height="28" maskUnits="userSpaceOnUse"><rect x="706" y="436" width="178" height="28" fill="white" /><rect x="743" y="437.5" width="14" height="25" fill="black" /><rect x="827" y="437.5" width="26" height="25" fill="black" /></mask><g mask="url(#09c5c)"><path d="M 720,450 L 870,450" fill="none" stroke="#2D94E4" stroke-width="2" stroke-linecap="round" stroke-linejoin="round" stroke-dasharray="0 0"/></g><g transform="translate(746, 440.5)" width="8" height="19"><text text-decoration="none" x="0" fill="#4b4b4b" font-size="10pt" font-family="lt_regular"  y="15">1</text><text text-decoration="none" x="8" fill="#4b4b4b" font-size="10pt" font-family="noto_regular"  y="15"></text></g><g transform="translate(830, 440.5)" width="20" height="19"><text text-decoration="none" x="0" fill="#4b4b4b" font-size="10pt" font-family="lt_regular"  y="15">1..*</text><text text-decoration="none" x="20" fill="#4b4b4b" font-size="10pt" font-family="noto_regular"  y="15"></text></g></g></svg>